<svg width="65" height="46" viewBox="0 0 65 46" fill="none" xmlns="http://www.w3.org/2000/svg">
<path d="M15.2344 0C6.83236 0 0 6.83427 0 15.2344C0 22.9036 5.69436 29.2674 13.0809 30.3163C12.4895 34.6121 10.8493 38.6996 8.28661 42.2442C7.78819 42.9359 7.80686 43.8732 8.33866 44.5426C8.86044 45.2014 9.76714 45.4511 10.5629 45.1155C22.6544 40.0684 30.4688 28.3376 30.4688 15.2344C30.4688 6.83427 23.6364 0 15.2344 0ZM49.7656 0C41.3636 0 34.5312 6.83427 34.5312 15.2344C34.5312 22.9036 40.2256 29.2674 47.6121 30.3163C47.0208 34.6121 45.3805 38.6996 42.8179 42.2442C42.3194 42.9359 42.3381 43.8732 42.8699 44.5426C43.3917 45.2014 44.2984 45.4511 45.0941 45.1155C57.1857 40.0684 65 28.3376 65 15.2344C65 6.83427 58.1676 0 49.7656 0Z" fill="#00A551"/>
</svg>
