<?xml version="1.0" encoding="UTF-8"?>
<svg xmlns="http://www.w3.org/2000/svg" width="289" height="77" viewBox="0 0 289 77" fill="none">
  <g clip-path="url(#clip0_1701_2511)">
    <path d="M79.1918 43.1145L73.386 32.5634H68.7783V43.1145H62.4844V13.668H76.3111C82.4719 13.668 86.2364 17.6873 86.2364 23.1617C86.2364 28.6362 82.9563 31.1524 79.765 31.9039L86.4139 43.1181H79.1918V43.1145ZM75.3792 19.054H68.7746V27.1773H75.3792C77.9049 27.1773 79.8094 25.5895 79.8094 23.1138C79.8094 20.6382 77.9049 19.0503 75.3792 19.0503V19.054Z" fill="#231F20"></path>
    <path d="M90.2676 43.1146V20.8594H106.076V24.9302H95.0232V29.7674H105.843V33.8382H95.0232V39.0106H106.076V43.1146H90.2676Z" fill="#231F20"></path>
    <path d="M125.202 43.1146L114.551 28.1648V43.1146H109.796V20.8594H114.685L125.035 35.275V20.8594H129.791V43.1146H125.202Z" fill="#231F20"></path>
    <path d="M134.214 43.1146V20.8594H150.023V24.9302H138.969V29.7674H149.79V33.8382H138.969V39.0106H150.023V43.1146H134.214Z" fill="#231F20"></path>
    <path d="M170.824 43.1146L166.904 27.8333L163.018 43.1146H157.959L151.562 20.8594H156.887L160.806 36.9439L165.059 20.8594H168.776L172.995 36.9439L176.882 20.8594H182.24L175.876 43.1146H170.817H170.824Z" fill="#231F20"></path>
    <path d="M205.902 43.1145L204.042 38.0379H190.837L188.977 43.1145H182.062L193.496 13.668H201.383L212.773 43.1145H205.902ZM197.438 19.0982L192.519 32.6076H202.315L197.441 19.0982H197.438Z" fill="#00A551"></path>
    <path d="M215.521 43.1145V13.668H231.079C236.707 13.668 239.588 17.2452 239.588 21.1723C239.588 24.8822 237.284 27.3542 234.492 27.9289C237.639 28.4152 240.165 31.4619 240.165 35.168C240.165 39.5815 237.195 43.1145 231.567 43.1145H215.525H215.521ZM221.815 25.4974H229.703C231.83 25.4974 233.161 24.1306 233.161 22.2297C233.161 20.3287 231.833 19.0061 229.703 19.0061H221.815V25.4974ZM221.815 37.7726H229.925C232.318 37.7726 233.738 36.4058 233.738 34.2838C233.738 32.4308 232.406 30.8393 229.925 30.8393H221.815V37.7726Z" fill="#00A551"></path>
    <path d="M244.905 43.1145V13.668H251.199V37.5958H263.698V43.1145H244.909H244.905Z" fill="#00A551"></path>
    <path d="M268.08 43.1145V13.668H288.999V19.054H274.374V25.4569H288.689V30.8429H274.374V37.6879H288.999V43.1181H268.08V43.1145Z" fill="#00A551"></path>
    <path d="M62.3584 68.0115V52.3027H72.3577V53.5258H63.7045V59.3429H72.1913V60.566H63.7045V66.7847H72.3577V68.0078H62.3584V68.0115Z" fill="#231F20"></path>
    <path d="M86.9724 68.0115L77.0433 54.4432V68.0115H75.6973V52.3027H77.0692L86.9502 65.6795V52.3027H88.2962V68.0115H86.9724Z" fill="#231F20"></path>
    <path d="M92.2197 68.0115V52.3027H102.219V53.5258H93.5658V59.3429H102.053V60.566H93.5658V66.7847H102.219V68.0078H92.2197V68.0115Z" fill="#231F20"></path>
    <path d="M114.8 68.0115L110.377 61.5091H106.901V68.0115H105.555V52.3027H111.442C114.16 52.3027 116.242 54.0232 116.242 56.8967C116.242 59.7703 114.208 61.3249 111.867 61.4207L116.43 68.0151H114.8V68.0115ZM111.324 53.5258H106.901V60.286H111.324C113.405 60.286 114.822 58.8714 114.822 56.893C114.822 54.9147 113.402 53.5258 111.324 53.5258Z" fill="#231F20"></path>
    <path d="M127.003 52.041C129.603 52.041 131.496 53.0762 132.938 54.7267L131.921 55.4561C130.812 54.1372 129.015 53.2641 127.003 53.2641C123.29 53.2641 120.432 56.0677 120.432 60.1643C120.432 64.261 123.294 67.0903 127.003 67.0903C129.107 67.0903 130.764 66.0551 131.637 65.182V61.4132H125.679V60.2122H132.986V65.7014C131.592 67.2561 129.488 68.3171 127.003 68.3171C122.58 68.3171 119.012 65.0199 119.012 60.168C119.012 55.3161 122.58 52.041 127.003 52.041Z" fill="#231F20"></path>
    <path d="M140.951 68.0115V61.2991L134.687 52.3027H136.317L141.639 60.0282L146.96 52.3027H148.591L142.327 61.2991V68.0115H140.955H140.951Z" fill="#231F20"></path>
    <path d="M42.2345 70.46C40.4706 63.2725 38.7547 56.0739 37.0204 48.8827C36.5174 46.7901 35.9886 44.705 35.4192 42.4098C32.9674 43.6292 30.7005 44.7565 28.3338 45.9317C26.5218 38.0737 24.7505 30.4035 22.9792 22.7334C22.8941 22.7371 22.8091 22.7444 22.724 22.7481C21.9918 34.8944 21.2596 47.037 20.5089 59.4779C23.7262 57.8791 26.6069 56.446 29.6799 54.9208C29.1992 62.3625 28.7258 69.6496 28.2488 76.9992C19.2479 73.6467 4.52262 61.1321 0.743293 43.6624C-3.90506 22.1808 14.6661 0.467074 16.5151 0.0065702C18.0979 -0.383937 44.4755 12.6686 49.1238 34.1539C52.2116 48.4332 47.9146 62.2889 42.2345 70.46Z" fill="url(#paint0_linear_1701_2511)"></path>
  </g>
  <defs>
    <linearGradient id="paint0_linear_1701_2511" x1="33.1227" y1="76.6603" x2="22.0535" y2="25.236" gradientUnits="userSpaceOnUse">
      <stop stop-color="#0D4D2F"></stop>
      <stop offset="1" stop-color="#00A551"></stop>
    </linearGradient>
    <clipPath id="clip0_1701_2511">
      <rect width="289" height="77" fill="white"></rect>
    </clipPath>
  </defs>
</svg>
