<svg width="67" height="68" viewBox="0 0 67 68" fill="none" xmlns="http://www.w3.org/2000/svg">
<path d="M33.5409 67.1003C31.3382 64.8977 29.1541 62.7135 26.9422 60.5017C27.0805 60.3634 27.2095 60.2344 27.3293 60.1146C28.7854 58.6585 30.26 57.2023 31.6977 55.7278C31.8543 55.5711 31.9741 55.2854 31.9741 55.0642C31.9926 50.6037 31.9834 46.1524 31.9741 41.701C31.9741 41.4799 31.8543 41.1942 31.6977 41.0375C29.5135 38.8349 27.3109 36.6322 25.1174 34.4388C24.9976 34.319 24.8686 34.19 24.7119 34.0333C24.8686 33.8767 24.9884 33.7568 25.1082 33.637C27.2924 31.4528 29.4766 29.2687 31.6608 27.0845C31.882 26.8633 31.9834 26.6513 31.9834 26.3195C31.9649 21.8959 31.9741 17.4814 31.9834 13.0485C31.9834 12.7352 31.9004 12.5048 31.6608 12.2836C30.2047 10.8459 28.7578 9.39897 27.3016 7.94284C27.1818 7.82304 27.0528 7.69401 26.9146 7.55577C29.1264 5.34393 31.3014 3.16896 33.5132 0.957122C35.6974 3.14131 37.8816 5.3255 40.1211 7.56499C40.0013 7.6848 39.8815 7.80461 39.7617 7.92441C38.3055 9.38054 36.831 10.8367 35.3933 12.3112C35.2274 12.4771 35.0984 12.772 35.0984 13.0116C35.0799 17.4538 35.0799 21.8959 35.0984 26.338C35.0984 26.5776 35.2274 26.8725 35.3933 27.0384C37.5683 29.2318 39.7524 31.416 41.9366 33.6002C42.0657 33.7292 42.1855 33.849 42.3606 34.0241C42.2223 34.1624 42.1025 34.2822 41.9735 34.4112C39.7801 36.6046 37.5775 38.8072 35.3933 41.0098C35.2274 41.1757 35.0984 41.4706 35.0984 41.7103C35.0799 46.1524 35.0799 50.5945 35.0892 55.0274C35.0892 55.267 35.2182 55.5619 35.3749 55.737C36.9324 57.3314 38.5175 58.8981 40.1119 60.4924C37.9461 62.6951 35.7619 64.8793 33.5409 67.1003ZM33.5409 38.3833C35.0154 36.9087 36.4715 35.4526 37.9185 34.0057C36.4439 32.5311 34.9878 31.075 33.5409 29.6281C32.0663 31.1026 30.6286 32.5403 29.1633 34.0057C30.6286 35.471 32.0755 36.9179 33.5409 38.3833ZM33.5409 9.68467C34.2874 8.93817 34.997 8.22854 35.7066 7.51891C34.9693 6.78163 34.2505 6.06278 33.5409 5.35315C32.8036 6.09043 32.094 6.80006 31.3751 7.51891C32.1032 8.24697 32.8128 8.9566 33.5409 9.68467ZM33.5501 58.3359C32.8036 59.0824 32.094 59.792 31.3843 60.5017C32.1216 61.2389 32.8312 61.9486 33.5501 62.6674C34.2874 61.9301 35.0062 61.2113 35.7158 60.5017C34.9786 59.7644 34.2781 59.064 33.5501 58.3359Z" fill="black"/>
</svg>
