<svg width="67" height="81" viewBox="0 0 67 81" fill="none" xmlns="http://www.w3.org/2000/svg">
<path d="M33.5409 80.5147C31.3382 77.8348 29.1541 75.1774 26.9422 72.4863C27.0805 72.3181 27.2095 72.1611 27.3293 72.0154C28.7854 70.2438 30.26 68.4721 31.6977 66.6781C31.8543 66.4875 31.9742 66.1399 31.9742 65.8708C31.9926 60.4438 31.9834 55.028 31.9741 49.6122C31.9741 49.3431 31.8543 48.9955 31.6977 48.8049C29.5135 46.125 27.3109 43.4452 25.1174 40.7765C24.9976 40.6308 24.8686 40.4738 24.7119 40.2832C24.8686 40.0926 24.9884 39.9468 25.1082 39.801C27.2924 37.1436 29.4766 34.4862 31.6608 31.8287C31.882 31.5596 31.9834 31.3017 31.9834 30.8981C31.9649 25.5159 31.9741 20.145 31.9834 14.7516C31.9834 14.3704 31.9004 14.0901 31.6608 13.821C30.2047 12.0718 28.7578 10.3114 27.3016 8.53975C27.1818 8.39398 27.0528 8.237 26.9146 8.06881C29.1264 5.37774 31.3014 2.73152 33.5132 0.0404541C35.6974 2.69789 37.8816 5.35532 40.1211 8.08003C40.0013 8.2258 39.8815 8.37156 39.7617 8.51733C38.3055 10.2889 36.831 12.0606 35.3933 13.8546C35.2274 14.0564 35.0984 14.4153 35.0984 14.7068C35.0799 20.1114 35.0799 25.5159 35.0984 30.9205C35.0984 31.212 35.2274 31.5708 35.3933 31.7727C37.5683 34.4413 39.7524 37.0987 41.9366 39.7562C42.0657 39.9131 42.1855 40.0589 42.3606 40.272C42.2223 40.4402 42.1025 40.5859 41.9735 40.7429C39.7801 43.4115 37.5775 46.0914 35.3933 48.7713C35.2274 48.9731 35.0984 49.3319 35.0984 49.6234C35.0799 55.028 35.0799 60.4326 35.0892 65.8259C35.0892 66.1175 35.2182 66.4763 35.3749 66.6893C36.9324 68.6291 38.5175 70.5353 40.1119 72.4751C37.9461 75.155 35.7619 77.8124 33.5409 80.5147ZM33.5409 45.5756C35.0154 43.7816 36.4716 42.0099 37.9185 40.2495C36.4439 38.4555 34.9878 36.6839 33.5409 34.9235C32.0663 36.7175 30.6286 38.4667 29.1633 40.2495C30.6286 42.0324 32.0755 43.7928 33.5409 45.5756ZM33.5409 10.659C34.2874 9.75073 34.997 8.88735 35.7066 8.02396C34.9693 7.12694 34.2505 6.25234 33.5409 5.38896C32.8036 6.28598 32.094 7.14936 31.3751 8.02396C32.1032 8.90977 32.8128 9.77316 33.5409 10.659ZM33.5501 69.8513C32.8036 70.7595 32.094 71.6229 31.3843 72.4863C32.1216 73.3833 32.8312 74.2467 33.5501 75.1213C34.2874 74.2243 35.0062 73.3497 35.7158 72.4863C34.9786 71.5893 34.2781 70.7371 33.5501 69.8513Z" fill="#FFF1E7"/>
</svg>
