<svg width="79" height="66" viewBox="0 0 79 66" fill="none" xmlns="http://www.w3.org/2000/svg">
<path d="M-0.000118162 32.7934C2.61851 30.6102 5.21523 28.4453 7.84481 26.253C8.00916 26.39 8.16255 26.5179 8.30499 26.6367C10.0361 28.0799 11.7673 29.5415 13.5203 30.9665C13.7066 31.1218 14.0463 31.2405 14.3092 31.2405C19.6122 31.2588 24.9043 31.2497 30.1963 31.2405C30.4593 31.2405 30.7989 31.1218 30.9852 30.9665C33.6038 28.8016 36.2224 26.6184 38.8301 24.4443C38.9725 24.3256 39.1259 24.1977 39.3122 24.0424C39.4985 24.1977 39.6409 24.3165 39.7833 24.4352C42.38 26.6001 44.9768 28.765 47.5735 30.93C47.8364 31.1492 48.0884 31.2497 48.4829 31.2497C53.742 31.2314 58.9903 31.2405 64.2604 31.2497C64.6329 31.2497 64.9068 31.1675 65.1698 30.93C66.879 29.4867 68.5992 28.0525 70.3304 26.6093C70.4728 26.4905 70.6262 26.3626 70.7905 26.2256C73.4201 28.4179 76.0059 30.5737 78.6355 32.766C76.0387 34.9309 73.442 37.0958 70.7796 39.3156C70.6371 39.1968 70.4947 39.0781 70.3523 38.9593C68.6211 37.516 66.89 36.0545 65.1369 34.6295C64.9397 34.4651 64.5891 34.3372 64.3042 34.3372C59.0231 34.3189 53.742 34.3189 48.461 34.3372C48.1761 34.3372 47.8255 34.4651 47.6283 34.6295C45.0206 36.7853 42.4239 38.9502 39.8272 41.1151C39.6738 41.243 39.5313 41.3617 39.3231 41.5353C39.1588 41.3983 39.0164 41.2795 38.863 41.1516C36.2553 38.9776 33.6367 36.7944 31.018 34.6295C30.8208 34.4651 30.4702 34.3372 30.1853 34.3372C24.9043 34.3189 19.6232 34.3189 14.353 34.328C14.0682 34.328 13.7176 34.4559 13.5094 34.6112C11.6139 36.155 9.75126 37.7261 7.85577 39.3064C5.23714 37.1598 2.64042 34.9949 -0.000118162 32.7934ZM34.1407 32.7934C35.8937 34.255 37.6249 35.6982 39.3451 37.1324C41.0981 35.6708 42.8293 34.2276 44.5495 32.7934C42.7964 31.3319 41.0872 29.9069 39.3451 28.4545C37.603 29.9069 35.8828 31.341 34.1407 32.7934ZM68.2596 32.7934C69.147 33.5333 69.9907 34.2367 70.8344 34.9401C71.7109 34.2093 72.5655 33.4968 73.4092 32.7934C72.5326 32.0627 71.689 31.3593 70.8344 30.6468C69.9688 31.3684 69.1251 32.0718 68.2596 32.7934ZM10.4196 32.8026C9.53213 32.0627 8.68847 31.3593 7.84481 30.6559C6.96829 31.3867 6.12463 32.0901 5.27001 32.8026C6.14654 33.5333 7.00115 34.2458 7.84481 34.9492C8.72134 34.2184 9.55405 33.5242 10.4196 32.8026Z" fill="#FFF1E7" fill-opacity="0.7"/>
</svg>
